<?xml version="1.0" encoding="utf-8"?>
<!-- Generator: Adobe Illustrator 15.0.0, SVG Export Plug-In . SVG Version: 6.00 Build 0)  -->
<!DOCTYPE svg PUBLIC "-//W3C//DTD SVG 1.1//EN" "http://www.w3.org/Graphics/SVG/1.1/DTD/svg11.dtd" [
	<!ENTITY st0 "enable-background:new    ;">
	<!ENTITY st1 "fill:#FFFFFF;">
	<!ENTITY st2 "fill:#38CE8D;">
	<!ENTITY st3 "fill:#001F26;">
	<!ENTITY st4 "fill:#00DC82;">
	<!ENTITY st5 "fill-rule:evenodd;clip-rule:evenodd;fill:#38CE8D;">
]>
<svg version="1.1" id="Capa_1" xmlns="http://www.w3.org/2000/svg" xmlns:xlink="http://www.w3.org/1999/xlink" x="0px" y="0px"
	 width="432.53px" height="375.967px" viewBox="699.64 17.888 432.53 375.967"
	 style="enable-background:new 699.64 17.888 432.53 375.967;" xml:space="preserve">
<rect x="77.167" y="480.833" style="&st3;" width="449" height="118"/>
<path style="&st4;" d="M329.604,396.054h218.407c6.938,0.001,13.752-1.828,19.76-5.306c6.009-3.477,10.996-8.477,14.464-14.497
	c3.467-6.021,5.291-12.853,5.288-19.805c-0.004-6.951-1.833-13.781-5.307-19.8L435.54,82.042c-3.467-6.02-8.453-11.019-14.46-14.495
	s-12.82-5.306-19.755-5.306c-6.937,0-13.749,1.83-19.757,5.306c-6.006,3.476-10.992,8.475-14.459,14.495l-37.506,65.145
	L256.277,19.798c-3.469-6.02-8.458-11.018-14.467-14.493C235.803,1.83,228.988,0,222.051,0c-6.936,0-13.751,1.83-19.759,5.305
	c-6.008,3.475-10.998,8.474-14.468,14.493L5.305,336.646c-3.473,6.019-5.302,12.849-5.305,19.8
	c-0.003,6.952,1.821,13.782,5.288,19.805c3.467,6.021,8.456,11.021,14.463,14.497c6.007,3.478,12.823,5.307,19.76,5.306h137.098
	c54.319,0,94.377-23.912,121.941-70.563l66.919-116.146l35.846-62.157l107.575,186.71H365.469L329.604,396.054z M174.372,333.832
	l-95.676-0.021L222.115,84.878l71.561,124.465l-47.913,83.191C227.458,322.804,206.661,333.832,174.372,333.832z"/>
<g style="&st0;">
	<path style="&st1;" d="M142.426,482.5h-10.477l-27.492-38.355V482.5h-9.281v-52.734h10.477l27.492,38.391v-38.391h9.281V482.5z"/>
	<path style="&st1;" d="M185.422,482.5h-7.137l-0.281-5.66c-1.266,2.063-2.93,3.639-4.992,4.729c-2.063,1.09-4.5,1.635-7.313,1.635
		c-4.523,0-8.092-1.389-10.705-4.166c-2.614-2.777-3.92-6.604-3.92-11.479v-20.215h8.648v18.563c0,2.93,0.744,5.244,2.232,6.943
		c1.488,1.699,3.51,2.549,6.064,2.549c2.648,0,4.769-0.902,6.363-2.707c1.594-1.805,2.391-4.207,2.391-7.207v-18.141h8.648V482.5z"
		/>
	<path style="&st1;" d="M202.191,482.5h-11.637l15.047-18.035l-14.133-17.121h11.777l8.262,11.039l8.121-11.039h11.672
		l-13.992,16.98L232.32,482.5h-11.777l-9.105-12.199L202.191,482.5z"/>
	<path style="&st1;" d="M259.918,481.586c-2.579,1.078-5.075,1.617-7.488,1.617c-2.461,0-4.623-0.527-6.486-1.582
		s-3.317-2.525-4.359-4.412c-1.043-1.887-1.564-4.084-1.564-6.592v-15.539h-6.152v-7.734h6.609v-8.789h8.191v8.789h10.02v7.734
		h-10.02v13.957c0,1.992,0.545,3.563,1.635,4.711s2.455,1.723,4.096,1.723c1.453,0,2.895-0.445,4.324-1.336L259.918,481.586z"/>
	<path style="&st1;" d="M293.809,468.191h-28.125v-6.68h28.125V468.191z"/>
	<path style="&st1;" d="M358.461,482.5h-9.281v-39.551l-14.66,30.691h-7.488l-14.59-30.516V482.5h-9.281v-52.734h11.813
		l15.82,33.715l15.785-33.715h11.883V482.5z"/>
	<path style="&st1;" d="M399.699,478.422c-4.383,3.188-9.176,4.781-14.379,4.781c-3.773,0-7.16-0.82-10.16-2.461
		s-5.373-3.885-7.119-6.732s-2.619-6.053-2.619-9.615c0-3.398,0.791-6.434,2.373-9.105s3.75-4.781,6.504-6.328
		s5.865-2.32,9.334-2.32c3.609,0,6.779,0.85,9.51,2.549s4.857,4.055,6.381,7.066s2.285,6.51,2.285,10.494v1.125h-27.07
		c0.422,1.594,1.166,3,2.232,4.219s2.396,2.168,3.99,2.848s3.387,1.02,5.379,1.02c3.75,0,7.219-1.219,10.406-3.656L399.699,478.422z
		 M374.387,462.813h19.406c-0.188-1.758-0.721-3.293-1.6-4.605s-2.016-2.338-3.41-3.076s-2.959-1.107-4.693-1.107
		c-1.758,0-3.328,0.375-4.711,1.125s-2.508,1.787-3.375,3.111S374.598,461.102,374.387,462.813z"/>
	<path style="&st1;" d="M443.117,482.5h-8.648v-18.563c0-2.93-0.75-5.244-2.25-6.943s-3.527-2.549-6.082-2.549
		c-2.625,0-4.734,0.896-6.328,2.689s-2.391,4.201-2.391,7.225V482.5h-8.648v-35.156h7.137l0.281,5.66
		c1.266-2.063,2.936-3.639,5.01-4.729s4.506-1.635,7.295-1.635c4.547,0,8.121,1.383,10.723,4.148s3.902,6.586,3.902,11.461V482.5z"
		/>
	<path style="&st1;" d="M485.059,482.5h-7.137l-0.281-5.66c-1.266,2.063-2.93,3.639-4.992,4.729s-4.5,1.635-7.313,1.635
		c-4.523,0-8.092-1.389-10.705-4.166s-3.92-6.604-3.92-11.479v-20.215h8.648v18.563c0,2.93,0.744,5.244,2.232,6.943
		s3.51,2.549,6.064,2.549c2.648,0,4.77-0.902,6.363-2.707s2.391-4.207,2.391-7.207v-18.141h8.648V482.5z"/>
</g>
<g>
	<g>
		<path style="&st2;" d="M797.044,357.039h-9.26l-24.301-34.502v34.502h-8.203v-47.437h9.26l24.301,34.532v-34.532h8.203V357.039z"
			/>
		<path style="&st2;" d="M835.048,357.039h-6.309l-0.249-5.092c-1.117,1.856-2.589,3.273-4.411,4.254
			c-1.823,0.98-3.979,1.471-6.464,1.471c-3.998,0-7.152-1.248-9.461-3.748c-2.312-2.497-3.466-5.939-3.466-10.324v-18.185h7.644
			v16.698c0,2.635,0.658,4.716,1.974,6.245c1.315,1.527,3.103,2.292,5.36,2.292c2.342,0,4.216-0.812,5.625-2.436
			c1.408-1.623,2.113-3.784,2.113-6.481v-16.318h7.644V357.039z"/>
		<path style="&st2;" d="M849.871,357.039h-10.287l13.301-16.224l-12.492-15.4h10.41l7.303,9.93l7.178-9.93H875.6l-12.367,15.274
			l13.269,16.35h-10.409l-8.049-10.975L849.871,357.039z"/>
		<path style="&st2;" d="M900.895,356.217c-2.279,0.968-4.485,1.455-6.619,1.455c-2.176,0-4.086-0.477-5.733-1.423
			c-1.646-0.949-2.931-2.272-3.853-3.97c-0.922-1.695-1.383-3.675-1.383-5.93v-13.978h-5.438v-6.957h5.843v-7.907h7.239v7.907h8.856
			v6.957h-8.856v12.555c0,1.792,0.482,3.204,1.446,4.238c0.963,1.032,2.17,1.549,3.619,1.549c1.285,0,2.559-0.399,3.822-1.201
			L900.895,356.217z"/>
		<path style="&st2;" d="M912.146,344.168h-9.001v-6.01h9.001V344.168z"/>
		<path style="&st2;" d="M966.445,357.039h-8.203v-35.575l-12.958,27.606h-6.619l-12.896-27.451v35.42h-8.204v-47.437h10.44
			l13.984,30.327l13.953-30.327h10.502V357.039z"/>
		<path style="&st2;" d="M1002.896,353.37c-3.875,2.868-8.111,4.302-12.711,4.302c-3.335,0-6.328-0.74-8.98-2.216
			c-2.651-1.476-4.748-3.494-6.291-6.054c-1.544-2.563-2.315-5.444-2.315-8.649c0-3.058,0.698-5.788,2.097-8.19
			c1.398-2.404,3.314-4.302,5.749-5.694c2.435-1.39,5.185-2.086,8.25-2.086c3.19,0,5.993,0.764,8.405,2.293
			c2.414,1.528,4.295,3.648,5.641,6.355c1.346,2.709,2.02,5.857,2.02,9.44v1.012h-23.926c0.371,1.435,1.029,2.699,1.973,3.796
			c0.941,1.095,2.117,1.95,3.527,2.56c1.408,0.613,2.993,0.919,4.754,0.919c3.314,0,6.38-1.097,9.197-3.29L1002.896,353.37z
			 M980.522,339.328h17.152c-0.165-1.579-0.637-2.961-1.414-4.141c-0.776-1.181-1.781-2.103-3.014-2.77
			c-1.233-0.662-2.616-0.994-4.147-0.994c-1.555,0-2.943,0.336-4.165,1.01c-1.222,0.676-2.216,1.609-2.983,2.801
			C981.186,336.425,980.709,337.791,980.522,339.328z"/>
		<path style="&st2;" d="M1041.273,357.039h-7.646v-16.697c0-2.636-0.663-4.718-1.988-6.246c-1.326-1.528-3.118-2.292-5.376-2.292
			c-2.32,0-4.186,0.805-5.594,2.418c-1.408,1.614-2.112,3.777-2.112,6.5v16.317h-7.646v-31.624h6.309l0.249,5.092
			c1.119-1.856,2.595-3.274,4.429-4.253c1.832-0.981,3.982-1.472,6.447-1.472c4.019,0,7.178,1.243,9.478,3.731
			c2.3,2.487,3.45,5.924,3.45,10.309V357.039z"/>
		<path style="&st2;" d="M1078.344,357.039h-6.308l-0.249-5.092c-1.118,1.856-2.59,3.273-4.412,4.254
			c-1.824,0.98-3.979,1.471-6.463,1.471c-3.999,0-7.152-1.248-9.463-3.748c-2.311-2.497-3.465-5.939-3.465-10.324v-18.185h7.645
			v16.698c0,2.635,0.658,4.716,1.974,6.245c1.314,1.527,3.103,2.292,5.36,2.292c2.34,0,4.216-0.812,5.625-2.436
			c1.407-1.623,2.111-3.784,2.111-6.481v-16.318h7.645V357.039z"/>
	</g>
	<g>
		<path style="&st5;" d="M1047.638,367.697h-15.036c0.094,3.023,0.208,6.029,0.356,9.003c-0.566,0.934-2.78,1.515-1,2
			c-19.825-1.435-40.597,1.465-62,1c-4.888-0.106-11.29,0.146-18,0c-7.306-0.159-15.322,0.188-24,0c-6.325-0.138-13.929,0.176-22,0
			c-3.126-0.068-7.237,0.104-12,0c-7.224-0.157-14.995,0.195-24,0c-6.944-0.151-14.159,0.17-22,0c-7.123-0.154-15.546,0.184-24,0
			c-3.226-0.07-8.478,0.12-14,0c-0.063-0.001-8.003-0.916-9-2c-1.494-1.625-2.296-5.947-2.698-10.003h-12.949
			c-0.071,5.558-0.186,10.92-0.353,16.003c-0.386,11.738,13.95,9.084,21.435,8.991c14.976-0.187,29.934,0.637,44.908,0.591
			c26.721-0.078,53.438-0.612,80.156-0.956c28.701-0.369,57.428-0.523,86.113,0.607c7.102,0.279,14.102,1.614,21.239,0.457
			c10.493-1.701,9.046-10.328,8.908-18.906C1047.682,372.222,1047.656,369.96,1047.638,367.697z"/>
		<path style="&st5;" d="M1129.592,133.121c-2.967-12.354-8.369-24.085-16.062-34.215c-18.591-24.485-49.073-38.765-79.803-37.207
			c-1.872,0.095-23.413,5.214-22.77,6.001c-6.819-8.347-13.046-15.531-24-24c-10.03-7.755-19.576-14.827-31.697-18.997
			c-3.612-1.242-7.29-2.268-11.01-3.116c-8.314-1.896-16.842-2.913-25.328-3.511c-24.364-1.716-51.696,8.525-71.449,22.54
			c-2.972,2.108-27.003,26.723-26.517,27.083c-6.297-4.673-14.814-5.266-22.373-5.477c-16.199-0.452-33.381-0.733-48.135,6.996
			c-12.854,6.733-22.801,18.003-31.47,29.381c-11.022,14.469-17.506,32.912-19.077,50.959c-2.437,27.993,12.346,54.48,32.027,73.353
			c8.601,8.247,17.473,15.98,29.374,18.729c4.634,1.07,9.597,1.166,14.096,2.768c1.823,0.648,8.534,3.845,8.559,6.291
			c0.132,13.665,0.514,30.745,0.852,48.878h16.028c0.199-16.422,0.057-33.702-0.88-49.877c-0.356-6.158,12.421-5.561,17-7
			c17.823-5.604,38.648-15.444,42-28c1.896-7.103-3.37-8.952-9.228-6.953c-16.192,5.526-28.024,18.582-44.905,22.553
			c-16.419,3.862-33.106,0.132-47.864-7.599c-22.365-11.716-40.839-34.346-42.658-60.167c-0.836-11.867,1.555-24.123,5.892-35.158
			c3.124-7.947,7.802-16.124,12.756-23.069c15.558-21.812,43.495-29.288,69.024-27.207c5.654,0.461,13.867,0.12,10.494,8.464
			c-1.131,2.797-3.213,5.058-4.492,7.772c-0.729,1.545-1.244,3.201-1.596,4.87c-0.422,2-0.853,3.998-1.125,6.025
			c-0.373,2.768-0.463,5.887,0.989,8.385c1.488,2.56,4.872,3.56,7.713,3.084c4.096-0.686,5.39-7.139,6.362-10.365
			c1.5-4.979,3.186-9.846,5.412-14.557c4.742-10.03,11.164-19.421,19.225-27.077c0.604-0.573,1.3-1.073,1.941-1.603
			c5.449-4.487,10.967-8.9,16.832-12.84c6.045-4.062,12.434-7.63,19.164-10.427c8.415-3.499,18.125-5.588,27.213-5.926
			c29.477-1.095,55.367,10.684,76.856,29.994c6.57,5.904,11.659,12.386,16.036,20.058c3.548,6.217,6.862,12.874,8.958,19.742
			c0.603,1.975,0.945,4.01,1.62,5.975c1.237,3.599,2.996,6.222,7.283,5.656c8.168-1.079,6.211-10.665,4.115-16.058
			c-1.54-3.961-3.676-7.649-4.994-11.708c-0.82-2.53-1.339-5.199-1.024-7.865c3.301-0.271,6.558-0.889,9.823-1.413
			c6.487-1.042,13.332-1.825,19.793-0.251c4.176,1.017,8.316,2.175,12.393,3.545c9.549,3.211,18.776,7.529,27.035,13.333
			c6.697,4.705,12.329,10.669,16.669,17.606c4.278,6.839,7.411,14.412,9.558,22.177c2.073,7.499,3.154,15.268,2.935,23.053
			c-0.104,3.719-0.501,7.423-1.089,11.095c-0.568,3.558-1.032,7.416-2.116,10.855c-2.784,8.839-8.181,18.211-14.165,25.244
			c-5.217,6.132-12.451,11.516-19.313,15.635c-23.467,14.089-56.605,18.498-79.789,1.12c-3.011-2.257-5.451-5.187-8.457-7.439
			c-3.605-2.701-13.195-10.566-17.737-5.69c-0.556,0.596-0.771,1.392-1.008,2.149c-0.263,0.839-0.538,1.693-0.873,2.495
			c-0.984,2.354-0.649,4.762,0.319,7.065c1.209,2.872,3.785,5.122,6.208,6.975c2.508,1.918,5.285,3.431,8.022,4.987
			c8.32,4.73,17.507,7.544,27.002,8.631c2.771,0.317,16.383,0.571,16.787,4.828c1.614,17.17,1.829,35.819,1.71,54.877h15.612
			c0.188-16.296,0.218-32.592-0.319-48.877c-0.14-4.255,2.891-5.573,6.542-6.2c8.06-1.384,15.184-2.314,22.692-5.958
			c7.689-3.73,14.75-8.718,21.384-14.071c7.486-6.042,13.494-13.849,18.967-21.691
			C1131.604,182.627,1135.314,156.943,1129.592,133.121z"/>
	</g>
</g>
</svg>
