<?xml version="1.0" encoding="utf-8"?>
<!-- Generator: Adobe Illustrator 15.0.0, SVG Export Plug-In . SVG Version: 6.00 Build 0)  -->
<!DOCTYPE svg PUBLIC "-//W3C//DTD SVG 1.1//EN" "http://www.w3.org/Graphics/SVG/1.1/DTD/svg11.dtd">
<svg version="1.1" id="Capa_1" xmlns="http://www.w3.org/2000/svg" xmlns:xlink="http://www.w3.org/1999/xlink" x="0px" y="0px"
	 width="600px" height="400px" viewBox="0 0 600 400" enable-background="new 0 0 600 400" xml:space="preserve">
<rect x="67.5" y="409.5" fill="#001F26" width="449" height="118"/>
<path fill="#00DC82" d="M329.604,396.054h218.407c6.938,0.001,13.752-1.828,19.76-5.306c6.008-3.476,10.996-8.476,14.463-14.497
	s5.291-12.853,5.288-19.805c-0.003-6.951-1.833-13.781-5.306-19.8L435.54,82.042c-3.467-6.02-8.453-11.019-14.46-14.495
	c-6.007-3.476-12.82-5.306-19.755-5.306c-6.937,0-13.749,1.83-19.756,5.306c-6.007,3.476-10.993,8.475-14.46,14.495l-37.506,65.145
	L256.277,19.798c-3.469-6.02-8.458-11.018-14.467-14.493C235.803,1.83,228.988,0,222.051,0c-6.936,0-13.751,1.83-19.759,5.305
	s-10.998,8.474-14.468,14.493L5.305,336.646c-3.473,6.019-5.302,12.849-5.305,19.8c-0.003,6.952,1.821,13.783,5.288,19.805
	c3.467,6.021,8.456,11.021,14.463,14.497c6.007,3.478,12.823,5.307,19.76,5.306h137.098c54.319,0,94.377-23.912,121.941-70.563
	l66.919-116.146l35.846-62.157l107.575,186.71H365.469L329.604,396.054z M174.372,333.832l-95.676-0.021L222.115,84.878
	l71.561,124.465l-47.913,83.191C227.458,322.804,206.661,333.832,174.372,333.832z"/>
<text transform="matrix(1 0 0 1 90.5 482.5)" fill="#FFFFFF" font-family="'KumbhSans-SemiBold'" font-size="72">Nuxt-Menu</text>
</svg>
